<?xml version="1.0" standalone="no"?>
<!DOCTYPE svg PUBLIC "-//W3C//DTD SVG 20010904//EN"
 "http://www.w3.org/TR/2001/REC-SVG-20010904/DTD/svg10.dtd">
<svg version="1.0" xmlns="http://www.w3.org/2000/svg"
 width="113.000000pt" height="113.000000pt" viewBox="0 0 113.000000 113.000000"
 preserveAspectRatio="xMidYMid meet">
<metadata>
Created by potrace 1.14, written by Peter Selinger 2001-2017
</metadata>
<g transform="translate(0.000000,113.000000) scale(0.100000,-0.100000)"
fill="#000000" stroke="none">
<path d="M527 1077 c-18 -16 -25 -26 -16 -24 29 9 40 -14 16 -33 -20 -17 -22
-17 -39 5 -10 13 -16 30 -13 38 3 7 -1 19 -9 26 -16 14 -18 12 -96 -76 -14
-15 -32 -44 -40 -63 -8 -19 -20 -39 -27 -43 -7 -4 -13 -16 -13 -25 0 -23 -19
-42 -42 -42 -16 0 -25 -28 -19 -62 0 -4 -11 -11 -25 -14 -23 -6 -25 -10 -20
-38 5 -24 2 -34 -16 -47 -20 -15 -21 -20 -10 -44 11 -23 10 -30 -3 -45 -19
-21 -19 -34 0 -50 14 -11 14 -15 0 -37 -15 -23 -15 -25 9 -44 22 -17 24 -24
15 -41 -9 -18 -8 -24 10 -37 14 -11 21 -25 19 -41 -2 -20 2 -26 21 -28 20 -3
22 -8 17 -32 -4 -24 -2 -29 17 -32 16 -2 23 -11 25 -31 3 -23 7 -27 23 -22 15
5 22 0 30 -25 8 -21 16 -29 26 -26 9 4 20 -5 31 -24 12 -21 22 -28 35 -24 18
6 47 -16 47 -35 0 -7 10 -9 26 -5 19 5 29 1 40 -15 19 -27 28 -27 44 4 11 20
16 22 33 13 16 -8 23 -7 34 8 7 10 13 22 13 27 0 5 11 6 25 3 18 -5 27 -1 34
13 6 10 7 21 4 25 -6 6 1 8 37 10 8 1 17 12 20 26 4 16 13 25 25 25 12 0 21 9
25 25 4 16 14 26 29 28 19 3 21 8 16 32 -5 24 -3 29 17 32 18 2 22 8 20 30 -2
19 4 30 18 38 15 8 19 17 14 36 -5 18 -1 31 15 45 20 18 20 22 6 42 -13 19
-13 23 5 42 20 22 20 22 1 40 -18 16 -19 20 -7 50 13 31 13 33 -10 44 -21 9
-24 16 -19 44 6 29 3 35 -20 45 -17 8 -25 19 -23 31 4 23 -19 51 -37 45 -8 -4
-15 5 -20 25 -4 17 -12 34 -19 38 -7 5 -18 24 -26 43 -7 19 -23 44 -34 55 -12
11 -30 33 -39 48 -22 35 -59 51 -70 31 -4 -8 -5 -19 -2 -25 7 -10 -21 -49 -35
-49 -3 0 -6 21 -6 47 1 44 -1 46 -27 47 -18 1 -40 -9 -60 -27z"/>
</g>
</svg>
